# xmcd
#
# Track frame offsets:
# 150
# 25453
# 47258
# 73927
# 102579
# 136554
# 164200
# 197118
# 221835
# 258025
# 293672
# 325476
#
# Disc length: 4769 seconds
#
# Revision: 0
# Processed by: cddbd v1.5.2PL0 Copyright (c) Steve Scherf et al.
# Submitted via: Audion 3.0.2 (http://www.panic.com/audion/)
#
DISCID=b9129f0c
DTITLE=Bob Dylan - 2003 London II D1 11/24 Doberman
DYEAR=1900
DGENRE=
TTITLE0=Drifter's Escape
TTITLE1=You Ain't Goin' Nowhere
TTITLE2=Cry A While
TTITLE3=Girl Of The North Country
TTITLE4=Romance In Durango
TTITLE5=Dear Landlord
TTITLE6=High Water
TTITLE7=Tough Mama
TTITLE8=Floater
TTITLE9=Million Miles
TTITLE10=Jokerman
TTITLE11=Honest With Me
EXTD=
EXTT0=
EXTT1=
EXTT2=
EXTT3=
EXTT4=
EXTT5=
EXTT6=
EXTT7=
EXTT8=
EXTT9=
EXTT10=
EXTT11=
PLAYORDER=
